<?xml version="1.0" encoding="iso-8859-1"?>
<!-- Uploaded to: SVG Repo, www.svgrepo.com, Generator: SVG Repo Mixer Tools -->
<svg version="1.1" id="Layer_1" xmlns="http://www.w3.org/2000/svg" xmlns:xlink="http://www.w3.org/1999/xlink" 
	 viewBox="0 0 392.727 392.727" xml:space="preserve">
<path style="fill:#FFFFFF;" d="M49.293,152.178v71.111h27.281v-31.612c0-6.012,4.848-10.925,10.925-10.925h76.865
	c6.012,0,10.925,4.848,10.925,10.925v31.612h42.279v-31.612c0-6.012,4.848-10.925,10.925-10.925h76.865
	c6.012,0,10.925,4.848,10.925,10.925v31.612h27.345v-71.111c-37.172-4.202-68.008-29.543-80.291-63.612
	c-19.459,28.509-51.329,56.113-59.798,63.354c-4.655,3.426-9.244,3.426-13.899,0.065c-5.301-4.396-39.499-33.228-59.992-63.289
	C117.172,122.699,86.4,147.976,49.293,152.178z"/>
<polygon style="fill:#56ACE0;" points="45.091,245.01 29.317,275.911 363.41,275.911 347.636,245.01 "/>
<path style="fill:#FFC10D;" d="M22.4,370.877h29.156l4.784-14.352c1.487-4.396,5.624-7.434,10.279-7.434h259.426
	c4.719,0,8.792,3.038,10.279,7.434l4.784,14.352h29.156v-73.18H22.465v73.18H22.4z"/>
<g>
	<rect x="98.36" y="202.537" style="fill:#56ACE0;" width="55.143" height="20.816"/>
	<rect x="239.224" y="202.537" style="fill:#56ACE0;" width="55.143" height="20.816"/>
</g>
<path style="fill:#FFC10D;" d="M135.725,49.907c0,19.523,34.715,56.63,60.574,79.386c25.988-23.079,60.768-60.444,60.768-79.386
	c0-15.451-12.606-28.057-28.057-28.057c-9.503,0-18.23,4.784-23.467,12.735c-4.59,6.335-13.511,6.4-18.166,0
	c-5.236-7.952-13.964-12.735-23.467-12.735C148.331,21.786,135.725,34.392,135.725,49.907z"/>
<path style="fill:#194F82;" d="M390.756,281.859L390.756,281.859l-25.6-50.23v-89.535v-0.065v-0.065v-95.03
	c8.21-4.008,13.834-12.347,13.834-22.109c0-13.576-11.055-24.76-24.76-24.76c-13.576,0-24.76,11.119-24.76,24.76
	c0,9.762,5.689,18.101,13.834,22.109v83.329c-69.236-14.675-64.646-80.032-64.646-80.291c0-27.539-22.303-49.842-49.842-49.842
	c-12.154,0-23.661,4.396-32.582,12.154c-8.857-7.758-20.299-12.154-32.517-12.154c-27.539,0-49.842,22.303-49.842,49.842
	c0,1.293,4.396,66.327-64.646,80.291V46.869c8.21-4.008,13.834-12.347,13.834-22.109C63.063,11.184,51.944,0,38.303,0
	s-24.76,11.119-24.76,24.76c0,9.762,5.689,18.101,13.834,22.109v94.642c0,0.129-0.065,0.323-0.065,0.388
	c0,0.129,0,0.323,0.065,0.388v89.147L1.842,281.859h0.065c-0.776,1.487-1.228,3.168-1.228,4.978v94.966
	c0,6.012,4.848,10.925,10.925,10.925h47.838c4.719,0,8.792-3.038,10.279-7.434l4.784-14.352h243.717l4.784,14.352
	c1.487,4.396,5.624,7.434,10.279,7.434h47.838c6.012,0,10.925-4.848,10.925-10.925v-94.966
	C392.048,284.962,391.531,283.345,390.756,281.859z M370.327,370.877h-29.156l-4.784-14.352c-1.487-4.396-5.624-7.434-10.279-7.434
	H66.618c-4.719,0-8.792,3.038-10.279,7.434l-4.784,14.352H22.4v-73.18h347.863v73.18H370.327z M187.248,34.521
	c4.655,6.4,13.705,6.335,18.166,0c5.236-7.952,13.964-12.735,23.467-12.735c15.451,0,28.057,12.606,28.057,28.057
	c0,18.941-34.78,56.242-60.768,79.386c-25.859-22.82-60.574-59.798-60.574-79.386c0-15.451,12.606-28.057,28.057-28.057
	C173.285,21.786,182.077,26.57,187.248,34.521z M189.382,151.984c4.655,3.297,9.244,3.297,13.899-0.065
	c8.598-7.176,40.404-34.844,59.798-63.354c12.283,34.069,43.055,59.41,80.291,63.612v71.111h-27.281v-31.547
	c0-6.012-4.848-10.925-10.925-10.925h-76.8c-6.012,0-10.925,4.848-10.925,10.925v31.612H175.16v-31.612
	c0-6.012-4.848-10.925-10.925-10.925h-76.8c-6.012,0-10.925,4.848-10.925,10.925v31.612H49.293v-71.111
	c37.172-4.202,67.943-29.414,80.226-63.547C150.012,118.756,184.081,147.588,189.382,151.984z M294.368,223.289h-55.143v-20.816
	h55.143L294.368,223.289L294.368,223.289z M98.36,223.289v-20.816h55.143v20.816H98.36z M29.317,275.911l15.774-30.901h302.545
	l15.774,30.901H29.317z"/>
</svg>