<?xml version="1.0" encoding="iso-8859-1"?>
<!-- Uploaded to: SVG Repo, www.svgrepo.com, Generator: SVG Repo Mixer Tools -->
<svg height="800px" width="800px" version="1.1" id="Layer_1" xmlns="http://www.w3.org/2000/svg" xmlns:xlink="http://www.w3.org/1999/xlink" 
	 viewBox="0 0 392.48 392.48" xml:space="preserve">
<path style="fill:#FFFFFF;" d="M328.507,126.26h-9.568c-19.006,21.01-50.618,34.909-86.497,34.909
	c-12.154,0-23.984-1.551-35.232-4.655l-52.881,34.65c-8.727,5.689-19.846-2.909-16.291-12.8l18.166-51.588
	c-0.129-0.129-0.259-0.323-0.388-0.453H63.973v161.81h264.598V126.26H328.507z"/>
<g>
	<polygon style="fill:#56ACE0;" points="59.707,309.856 28.741,370.624 363.739,370.624 332.773,309.856 	"/>
	<path style="fill:#56ACE0;" d="M165.856,115.529c3.426,3.232,4.59,8.145,3.038,12.541l-9.568,27.281l29.543-19.329
		c3.103-2.004,7.111-2.651,10.731-1.487c10.408,3.232,21.527,4.848,32.97,4.848c45.899,0,83.329-26.376,83.329-58.828
		s-37.43-58.828-83.329-58.828s-83.329,26.376-83.329,58.828C149.177,96.523,158.228,108.418,165.856,115.529z"/>
</g>
<path style="fill:#FFC10D;" d="M260.175,66.01c0-5.56-4.461-10.02-10.02-10.02c-3.426,0-6.594,1.681-8.404,4.59l0,0
	c-4.331,6.594-13.899,6.594-18.23,0l0,0c-1.875-2.844-5.042-4.59-8.404-4.59c-5.56,0-10.02,4.461-10.02,10.02
	c0,6.788,13.446,22.949,27.604,35.943C246.6,88.83,260.175,72.604,260.175,66.01z"/>
<g>
	<path style="fill:#194F82;" d="M250.026,34.139c-6.335,0-12.412,1.875-17.519,5.236c-5.107-3.426-11.184-5.236-17.519-5.236
		c-17.519,0-31.935,14.287-31.935,31.935c0,21.915,32.517,50.618,42.473,58.893c4.008,3.297,9.956,3.297,13.964-0.065l0,0
		c9.956-8.339,42.408-37.301,42.408-58.828C281.961,48.491,267.61,34.139,250.026,34.139z M204.903,66.01
		c0-5.56,4.461-10.02,10.02-10.02c3.426,0,6.594,1.681,8.404,4.59l0,0c4.331,6.594,13.899,6.594,18.23,0l0,0
		c1.875-2.844,5.042-4.59,8.404-4.59c5.56,0,10.02,4.461,10.02,10.02c0,6.594-13.446,22.691-27.669,35.943
		C218.349,88.959,204.903,72.798,204.903,66.01z"/>
	<path style="fill:#194F82;" d="M208.006,335.198H184.41c-6.012,0-10.925,4.848-10.925,10.925c0,6.012,4.848,10.925,10.925,10.925
		h23.596c6.012,0,10.925-4.849,10.925-10.925C218.866,340.175,214.018,335.198,208.006,335.198z"/>
	<path style="fill:#194F82;" d="M391.278,376.636l-40.986-80.291V115.4c0-6.012-4.849-10.925-10.925-10.925h-6.594
		c3.103-7.564,4.719-15.515,4.719-23.855c0-44.412-47.127-80.614-105.115-80.614S127.262,36.143,127.262,80.62
		c0,8.145,1.616,16.226,4.719,23.855H53.048c-6.012,0-10.925,4.848-10.925,10.925v181.01L1.202,376.701
		c-3.685,7.176,1.552,15.774,9.632,15.774h370.812C389.727,392.41,394.963,383.876,391.278,376.636z M28.741,370.624l30.966-60.768
		h273.067l30.966,60.768H28.741z M232.507,21.792c45.899,0,83.329,26.376,83.329,58.828s-37.43,58.828-83.329,58.828
		c-11.442,0-22.562-1.616-32.97-4.848c-3.62-1.164-7.628-0.517-10.731,1.487l-29.543,19.329l9.568-27.281
		c1.552-4.396,0.388-9.244-3.038-12.541c-7.564-7.176-16.679-19.071-16.679-34.974C149.177,48.167,186.608,21.792,232.507,21.792z
		 M63.973,126.26h81.907c0.129,0.129,0.259,0.323,0.388,0.453l-18.166,51.588c-3.491,9.891,7.564,18.554,16.291,12.8l52.881-34.65
		c11.313,3.103,23.208,4.655,35.232,4.655c35.879,0,67.556-13.834,86.497-34.909h9.568v161.81H63.973V126.26z"/>
</g>
<path style="fill:#FFC10D;" d="M138.769,148.046h-53.01v118.238h221.026V148.046h-17.002c-16.485,8.275-36.137,13.123-57.277,13.123
	c-12.154,0-23.984-1.551-35.232-4.655l-52.881,34.65c-8.727,5.689-19.846-2.909-16.291-12.8L138.769,148.046z"/>
</svg>