<?xml version="1.0" encoding="iso-8859-1"?>
<!-- Uploaded to: SVG Repo, www.svgrepo.com, Generator: SVG Repo Mixer Tools -->
<svg height="800px" width="800px" version="1.1" id="Layer_1" xmlns="http://www.w3.org/2000/svg" xmlns:xlink="http://www.w3.org/1999/xlink" 
	 viewBox="0 0 512 512" xml:space="preserve">
<path style="fill:#3E3D43;" d="M161.567,375.86h-25.464v-12.675h12.539v-31.347h-12.539v-20.522h-31.347v20.522H92.217v31.347
	h12.539v12.675H79.282c-11.525,0-20.898,9.373-20.898,20.898v94.344c0,11.525,9.373,20.898,20.898,20.898h82.286
	c11.525,0,20.898-9.373,20.898-20.898v-94.344C182.465,385.233,173.093,375.86,161.567,375.86z M104.756,480.653H89.731v-73.446
	h15.026V480.653z M151.118,480.653h-15.015v-73.446h15.015V480.653z"/>
<path style="fill:#2B292C;" d="M161.567,375.86h-25.464v-12.675h12.539v-31.347h-12.539v-20.522h-16.499V512h41.963
	c11.525,0,20.898-9.373,20.898-20.898v-94.344C182.465,385.233,173.093,375.86,161.567,375.86z M151.118,480.653h-15.015v-73.446
	h15.015V480.653z"/>
<polygon style="fill:#F6E04F;" points="255.351,0 255.351,59.643 239.58,59.643 239.58,59.653 170.327,59.653 170.327,59.643 
	154.556,59.643 154.556,0 "/>
<polygon style="fill:#F3D332;" points="255.351,0 255.351,59.643 239.58,59.643 239.58,59.653 204.549,59.653 204.549,0 "/>
<path style="fill:#00CFB4;" d="M154.42,43.969l-80.112,72.673L0.559,185.637v131.751h510.882V43.969H154.42z M419.02,165.01H286.757
	v-35.182H419.02V165.01z"/>
<path style="fill:#00AF94;" d="M255.378,43.969v273.418h256.063V43.969H255.378z M419.02,165.01H286.757v-35.182H419.02V165.01z"/>
<path style="fill:#DFDFE2;" d="M255.41,98.482v97.876h194.957V98.482H255.41z M419.02,165.01H286.757v-35.182H419.02V165.01z"/>
<polygon style="fill:#D7D6D9;" points="450.367,98.482 450.367,196.357 354.006,196.357 354.006,165.01 419.02,165.01 
	419.02,129.829 354.006,129.829 354.006,98.482 "/>
</svg>